<svg version="1.1" class="clearos-svg clearfoundation app-vendor-egloo app-free app-category-server app-sub-category-file" viewBox="0 0 400 400" preserveAspectRatio="xMinYMin" xmlns="http://www.w3.org/2000/svg" xmlns:xlink= "http://www.w3.org/1999/xlink">
<path fill="#AA0707" d="M91.666,184.647"/>
<path fill="#AA0707" d="M123.245,247.805"/>
<path fill="#AA0707" d="M91.666,184.647"/>
<path fill="#AA0707" d="M123.245,247.805"/>
<g>
	<path fill="#686868" d="M200,3.084C91.248,3.084,3.088,91.244,3.088,199.996c0,108.743,88.16,196.92,196.912,196.92
		c108.734,0,196.912-88.145,196.912-196.904C396.912,91.26,308.752,3.084,200,3.084z M200,378.422
		c-98.553,0-178.435-79.881-178.435-178.426c0-98.537,79.882-178.435,178.435-178.435c98.537,0,178.436,79.882,178.436,178.435
		C378.436,298.541,298.537,378.422,200,378.422z"/>
	<path fill="#686868" d="M200,31.051c-93.324,0-168.978,75.621-168.978,168.961c0,93.301,75.654,168.954,168.978,168.954
		c93.292,0,168.945-75.653,168.945-168.954C368.945,106.672,293.324,31.051,200,31.051z M212.087,304.964h-66.81l62.55-113.021
		l-62.55-113.045h66.81l62.582,113.029L212.087,304.964z"/>
</g>
</svg>
